# Blender v2.79 (sub 0) OBJ File: 'Ice2.blend'
# www.blender.org
mtllib Ice_surface.mtl
o Plane
v -3.250000 0.000000 3.000000
v -5.000000 0.000000 1.950000
v -3.591408 0.000000 2.979825
v -3.919696 0.000000 2.920074
v -4.222248 0.000000 2.823043
v -4.487437 0.000000 2.692462
v -4.705072 0.000000 2.533349
v -4.866789 0.000000 2.351818
v -4.966374 0.000000 2.154845
v 5.000000 0.000000 1.950000
v 3.250000 0.000000 3.000000
v 4.966374 0.000000 2.154845
v 4.866789 0.000000 2.351818
v 4.705072 0.000000 2.533349
v 4.487437 0.000000 2.692462
v 4.222248 0.000000 2.823043
v 3.919696 0.000000 2.920074
v 3.591408 0.000000 2.979825
v -3.250000 0.000000 -3.000000
v -5.000000 0.000000 -1.950000
v -3.591408 0.000000 -2.979825
v -3.919696 0.000000 -2.920074
v -4.222248 0.000000 -2.823043
v -4.487437 0.000000 -2.692462
v -4.705072 0.000000 -2.533349
v -4.866789 0.000000 -2.351818
v -4.966374 0.000000 -2.154845
v 3.250000 0.000000 -3.000000
v 5.000000 0.000000 -1.950000
v 3.591408 0.000000 -2.979825
v 3.919696 0.000000 -2.920074
v 4.222248 0.000000 -2.823043
v 4.487437 0.000000 -2.692462
v 4.705072 0.000000 -2.533349
v 4.866789 0.000000 -2.351818
v 4.966374 0.000000 -2.154845
vt 0.000000 0.175000
vt 0.003363 0.140859
vt 0.013321 0.108031
vt 0.029493 0.077775
vt 0.051256 0.051257
vt 0.077775 0.029493
vt 0.108030 0.013321
vt 0.140859 0.003363
vt 0.175000 0.000000
vt 0.825000 0.000000
vt 0.859141 0.003363
vt 0.891969 0.013321
vt 0.922225 0.029493
vt 0.948743 0.051256
vt 0.970507 0.077775
vt 0.986679 0.108030
vt 0.996637 0.140859
vt 1.000000 0.175000
vt 1.000000 0.825000
vt 0.996637 0.859141
vt 0.986679 0.891969
vt 0.970507 0.922225
vt 0.948744 0.948743
vt 0.922225 0.970507
vt 0.891970 0.986679
vt 0.859141 0.996637
vt 0.825000 1.000000
vt 0.175000 1.000000
vt 0.140859 0.996637
vt 0.108031 0.986679
vt 0.077775 0.970507
vt 0.051257 0.948744
vt 0.029493 0.922225
vt 0.013321 0.891970
vt 0.003363 0.859141
vt 0.000000 0.825000
vn 0.0000 1.0000 0.0000
usemtl Material.005
s off
f 2/1/1 9/2/1 8/3/1 7/4/1 6/5/1 5/6/1 4/7/1 3/8/1 1/9/1 11/10/1 18/11/1 17/12/1 16/13/1 15/14/1 14/15/1 13/16/1 12/17/1 10/18/1 29/19/1 36/20/1 35/21/1 34/22/1 33/23/1 32/24/1 31/25/1 30/26/1 28/27/1 19/28/1 21/29/1 22/30/1 23/31/1 24/32/1 25/33/1 26/34/1 27/35/1 20/36/1
